<svg xmlns="http://www.w3.org/2000/svg" xmlns:xlink="http://www.w3.org/1999/xlink" width="180" zoomAndPan="magnify" viewBox="0 0 135 37.5" height="50" preserveAspectRatio="xMidYMid meet" version="1.0"><defs><clipPath id="6b84d09a7b"><path d="M 6.296875 0.21875 L 128.417969 0.21875 L 128.417969 36.484375 L 6.296875 36.484375 Z M 6.296875 0.21875 " clip-rule="nonzero"/></clipPath></defs><g clip-path="url(#6b84d09a7b)"><path fill="#38b6ff" d="M 70.828125 0.449219 C 70.609375 0.570312 70.585938 0.664062 70.46875 1.703125 C 70.160156 4.429688 70.101562 7.664062 70.308594 10.335938 C 70.390625 11.378906 70.5 12.316406 71.109375 17.125 C 71.488281 20.160156 71.589844 21.558594 71.515625 22.957031 C 71.390625 25.386719 70.875 27.808594 70.042969 29.890625 C 69.820312 30.445312 69.777344 30.492188 69.769531 30.191406 C 69.75 29.226562 68.625 28.125 67.433594 27.894531 C 64.886719 27.402344 61.757812 30.398438 61.726562 33.363281 L 61.71875 33.804688 L 61.40625 33.84375 C 60.574219 33.949219 59.882812 34.023438 59.292969 34.074219 C 51.625 34.710938 50.546875 33.894531 52.929688 29.277344 C 53.550781 28.074219 53.714844 27.734375 53.859375 27.351562 C 54.472656 25.714844 54.175781 24.886719 52.851562 24.519531 C 52.507812 24.425781 50.875 24.40625 50.199219 24.488281 C 48.21875 24.726562 45.324219 25.3125 40.738281 26.398438 C 39.296875 26.742188 38.765625 26.859375 37.210938 27.199219 C 36.710938 27.308594 35.625 27.550781 34.800781 27.742188 C 30.238281 28.789062 27.726562 29.300781 26.089844 29.519531 C 24.011719 29.796875 22.511719 29.511719 21.632812 28.667969 L 21.449219 28.496094 L 21.753906 28.339844 C 25.304688 26.511719 27.988281 23.984375 28.859375 21.648438 C 29.546875 19.804688 29.015625 18.171875 27.625 17.84375 C 24.523438 17.113281 19.984375 22.523438 20.09375 26.8125 C 20.113281 27.464844 20.121094 27.539062 20.277344 28.074219 C 20.300781 28.152344 19.875 28.355469 18.585938 28.886719 C 15.28125 30.238281 10.898438 31.40625 6.792969 32.019531 L 6.398438 32.078125 L 6.398438 32.492188 C 6.398438 32.792969 6.410156 32.90625 6.441406 32.90625 C 6.539062 32.90625 8.15625 32.644531 8.84375 32.519531 C 13.011719 31.75 17.050781 30.53125 20.210938 29.09375 L 20.699219 28.867188 L 20.804688 29.007812 C 21.242188 29.597656 22.257812 30.15625 23.226562 30.339844 C 24.988281 30.671875 27.363281 30.3125 34.90625 28.574219 C 35.65625 28.398438 36.941406 28.113281 37.769531 27.933594 C 38.59375 27.753906 39.875 27.460938 40.613281 27.285156 C 42.398438 26.863281 44.582031 26.371094 46.515625 25.957031 C 47.804688 25.679688 49.242188 25.433594 50.460938 25.289062 C 51.757812 25.132812 53 25.292969 53.265625 25.65625 C 53.488281 25.953125 53.210938 26.9375 52.554688 28.191406 C 52.042969 29.167969 51.535156 30.214844 51.367188 30.640625 C 50.5 32.84375 51.097656 34.355469 53.03125 34.847656 C 54.429688 35.203125 58.273438 35.109375 61.773438 34.632812 L 61.929688 34.613281 L 62.058594 34.867188 C 63.035156 36.785156 65.96875 36.683594 68.0625 34.65625 C 70.121094 32.671875 71.765625 28.636719 72.226562 24.453125 C 72.472656 22.226562 72.355469 20.070312 71.757812 15.660156 C 71.667969 15.003906 71.289062 11.882812 71.21875 11.226562 C 71.054688 9.691406 70.964844 7.585938 71.003906 6.183594 L 71.03125 5.277344 L 71.214844 5.765625 C 71.949219 7.714844 72.71875 8.96875 74.691406 11.433594 C 76.492188 13.6875 77.113281 14.535156 77.648438 15.472656 C 78.308594 16.628906 78.742188 17.953125 78.738281 18.796875 L 78.734375 19.0625 L 78.664062 18.890625 C 78.546875 18.59375 78.09375 17.6875 77.867188 17.28125 C 77.335938 16.347656 76.351562 14.867188 75.113281 13.144531 C 73.28125 10.601562 73.226562 10.515625 72.714844 9.222656 C 72.320312 8.21875 72.289062 8.15625 72.121094 8.0625 C 71.925781 7.957031 71.582031 8.0625 71.582031 8.230469 C 71.582031 8.265625 71.566406 8.292969 71.546875 8.292969 C 71.394531 8.292969 71.664062 9.148438 72.105469 10.054688 C 73.269531 12.460938 73.515625 12.875 75.171875 15.210938 C 77.6875 18.765625 78.105469 19.890625 77.746094 22.105469 C 77.683594 22.46875 77.679688 22.710938 77.726562 22.710938 C 77.746094 22.710938 77.761719 22.734375 77.761719 22.765625 C 77.761719 22.871094 77.910156 22.96875 78.09375 22.984375 C 78.335938 23.003906 78.496094 22.867188 78.6875 22.476562 L 78.824219 22.207031 L 78.851562 22.34375 C 79.007812 23.207031 79.027344 23.417969 79.054688 25.015625 C 79.125 28.777344 79.574219 30.113281 80.96875 30.707031 C 82.207031 31.234375 83.542969 30.695312 87.871094 27.925781 C 89.566406 26.839844 90.519531 26.273438 92.128906 25.394531 C 93.964844 24.390625 96.421875 23.296875 98.195312 22.695312 C 104.246094 20.636719 108.28125 21.246094 110.324219 24.519531 C 110.511719 24.820312 110.519531 24.796875 110.203125 24.980469 C 107.019531 26.824219 105.53125 30.039062 107.132812 31.628906 C 108.507812 32.996094 111.058594 31.757812 111.8125 29.359375 C 112.15625 28.269531 112.125 26.796875 111.730469 25.597656 C 111.65625 25.367188 111.597656 25.175781 111.601562 25.171875 C 111.605469 25.167969 111.703125 25.121094 111.820312 25.070312 C 114.992188 23.621094 119.933594 22.777344 125.855469 22.675781 C 126.96875 22.65625 128.039062 22.632812 128.238281 22.621094 L 128.59375 22.601562 L 128.59375 21.839844 L 127.765625 21.839844 C 126.410156 21.84375 123.695312 21.902344 123.097656 21.941406 C 118.085938 22.277344 114.132812 23.082031 111.511719 24.296875 C 111.359375 24.367188 111.230469 24.421875 111.226562 24.414062 C 111.222656 24.410156 111.144531 24.28125 111.054688 24.125 C 107.789062 18.578125 99.109375 19.75 87.242188 27.339844 C 83.109375 29.980469 81.929688 30.4375 80.980469 29.765625 C 80.207031 29.214844 79.917969 27.925781 79.855469 24.738281 C 79.824219 22.921875 79.773438 22.496094 79.449219 21.230469 L 79.324219 20.746094 L 79.398438 20.375 C 79.867188 17.96875 79.222656 15.96875 77.046875 13.09375 C 76.570312 12.464844 76.464844 12.328125 74.910156 10.382812 C 72.75 7.675781 71.667969 5.375 71.394531 2.917969 C 71.304688 2.101562 71.292969 1.707031 71.355469 1.378906 C 71.488281 0.636719 71.25 0.214844 70.828125 0.449219 M 27.578125 18.703125 C 28.230469 18.945312 28.492188 19.769531 28.246094 20.792969 C 27.722656 22.949219 25.535156 25.242188 22.179688 27.152344 C 20.992188 27.832031 21.058594 27.8125 20.976562 27.449219 C 20.171875 24.007812 24.925781 17.710938 27.578125 18.703125 M 110.960938 25.933594 C 111.652344 28.15625 110.988281 30.332031 109.367188 31.140625 C 108.4375 31.605469 107.667969 31.355469 107.398438 30.5 C 107.015625 29.269531 108.070312 27.457031 109.9375 26.144531 C 110.261719 25.914062 110.78125 25.585938 110.828125 25.578125 C 110.839844 25.574219 110.898438 25.734375 110.960938 25.933594 M 67.117188 28.683594 C 68.933594 28.96875 69.53125 30.742188 68.339844 32.316406 C 67.457031 33.480469 65.601562 34.390625 64.703125 34.097656 L 64.511719 34.03125 L 64.652344 33.972656 C 64.730469 33.941406 64.964844 33.828125 65.175781 33.726562 C 65.386719 33.628906 65.613281 33.53125 65.683594 33.519531 C 66.351562 33.378906 67.472656 32.726562 68.011719 32.160156 C 69.738281 30.351562 66.71875 28.542969 64.613281 30.125 C 63.710938 30.804688 63.152344 31.90625 63.152344 33.003906 C 63.152344 33.507812 63.148438 33.539062 63.082031 33.554688 C 62.78125 33.621094 62.6875 33.636719 62.613281 33.640625 L 62.53125 33.640625 L 62.546875 33.28125 C 62.671875 30.929688 65.199219 28.386719 67.117188 28.683594 M 67.5 30.734375 C 67.761719 30.996094 67.757812 31.210938 67.480469 31.527344 L 67.355469 31.667969 L 67.382812 31.527344 C 67.429688 31.253906 67.40625 30.859375 67.332031 30.707031 C 67.238281 30.523438 67.296875 30.53125 67.5 30.734375 M 66.421875 30.953125 C 66.890625 31.082031 66.371094 31.996094 65.5 32.578125 C 65.089844 32.855469 64.480469 32.851562 64.410156 32.574219 C 64.265625 32.003906 65.328125 31.0625 66.277344 30.917969 C 66.285156 30.917969 66.351562 30.933594 66.421875 30.953125 M 63.722656 34.476562 C 64.417969 35.113281 65.496094 35.148438 66.75 34.5625 C 67.160156 34.375 67.160156 34.382812 66.734375 34.667969 C 65.226562 35.671875 63.539062 35.667969 62.890625 34.652344 C 62.828125 34.554688 62.78125 34.472656 62.789062 34.464844 C 62.796875 34.460938 63.117188 34.390625 63.519531 34.308594 C 63.53125 34.304688 63.621094 34.378906 63.722656 34.476562 " fill-opacity="1" fill-rule="evenodd"/></g></svg>